<svg xmlns="http://www.w3.org/2000/svg" xmlns:xlink="http://www.w3.org/1999/xlink" viewBox="0 0 750 500"><defs><style>.cls-1{fill:none;}.cls-2{isolation:isolate;}.cls-3{fill:url(#Безымянный_градиент_142);}.cls-4{clip-path:url(#clip-path);}.cls-5{opacity:0.52;fill:url(#Безымянный_градиент_110);}.cls-10,.cls-11,.cls-12,.cls-13,.cls-14,.cls-45,.cls-49,.cls-5,.cls-53,.cls-57,.cls-6,.cls-61,.cls-7,.cls-8,.cls-9{mix-blend-mode:multiply;}.cls-6,.cls-7,.cls-8{opacity:0.55;}.cls-6{fill:url(#Безымянный_градиент_121);}.cls-7{fill:url(#Безымянный_градиент_87);}.cls-8{fill:url(#Безымянный_градиент_119);}.cls-10,.cls-12,.cls-13,.cls-14,.cls-9{opacity:0.4;}.cls-9{fill:url(#Безымянный_градиент_87-2);}.cls-10{fill:url(#Безымянный_градиент_113);}.cls-11,.cls-57{opacity:0.36;}.cls-11{fill:url(#Безымянный_градиент_89);}.cls-12{fill:url(#Безымянный_градиент_115);}.cls-13{fill:url(#Безымянный_градиент_98);}.cls-14{fill:url(#Безымянный_градиент_109);}.cls-15{fill:url(#Безымянный_градиент_23);}.cls-16{fill:url(#Безымянный_градиент_52);}.cls-17{fill:url(#Безымянный_градиент_54);}.cls-18{fill:url(#Безымянный_градиент_23-2);}.cls-19{fill:url(#Безымянный_градиент_52-2);}.cls-20{fill:url(#Безымянный_градиент_54-2);}.cls-21{fill:url(#Безымянный_градиент_50);}.cls-22{fill:url(#Безымянный_градиент_49);}.cls-23{fill:url(#Безымянный_градиент_24);}.cls-24{fill:url(#Безымянный_градиент_50-2);}.cls-25{fill:url(#Безымянный_градиент_49-2);}.cls-26{fill:url(#Безымянный_градиент_24-2);}.cls-27{fill:url(#Безымянный_градиент_50-3);}.cls-28{fill:url(#Безымянный_градиент_49-3);}.cls-29{fill:url(#Безымянный_градиент_24-3);}.cls-30{fill:url(#Безымянный_градиент_50-4);}.cls-31{fill:url(#Безымянный_градиент_49-4);}.cls-32{fill:url(#Безымянный_градиент_24-4);}.cls-33{fill:url(#Безымянный_градиент_50-5);}.cls-34{fill:url(#Безымянный_градиент_49-5);}.cls-35{fill:url(#Безымянный_градиент_68);}.cls-36{fill:url(#Безымянный_градиент_50-6);}.cls-37{fill:url(#Безымянный_градиент_49-6);}.cls-38{fill:url(#Безымянный_градиент_24-5);}.cls-39{fill:url(#Безымянный_градиент_30);}.cls-40{fill:url(#Безымянный_градиент_40);}.cls-41{fill:url(#Безымянный_градиент_47);}.cls-42{fill:url(#Безымянный_градиент_30-2);}.cls-43{fill:url(#Безымянный_градиент_40-2);}.cls-44{fill:url(#Безымянный_градиент_47-2);}.cls-45{opacity:0.34;fill:url(#Безымянный_градиент_85);}.cls-46{fill:url(#Безымянный_градиент_42);}.cls-47{fill:url(#Безымянный_градиент_43);}.cls-48{fill:url(#Безымянный_градиент_27);}.cls-49{opacity:0.37;fill:url(#Безымянный_градиент_117);}.cls-50{fill:url(#Безымянный_градиент_64);}.cls-51{fill:url(#Безымянный_градиент_58);}.cls-52{fill:url(#Безымянный_градиент_61);}.cls-53{opacity:0.41;fill:url(#Безымянный_градиент_85-2);}.cls-54{fill:url(#Безымянный_градиент_30-3);}.cls-55{fill:url(#Безымянный_градиент_40-3);}.cls-56{fill:url(#Безымянный_градиент_47-3);}.cls-57{fill:url(#Безымянный_градиент_111);}.cls-58{fill:url(#Безымянный_градиент_64-2);}.cls-59{fill:url(#Безымянный_градиент_65);}.cls-60{fill:url(#Безымянный_градиент_67);}.cls-61{opacity:0.27;fill:url(#Безымянный_градиент_91);}.cls-62{fill:url(#Безымянный_градиент_30-4);}.cls-63{fill:url(#Безымянный_градиент_40-4);}.cls-64{fill:url(#Безымянный_градиент_47-4);}.cls-65{font-size:76.46px;fill:#fff;font-family:CaviarDreams-Bold, Caviar Dreams;font-weight:700;}.cls-66{font-size:52px;font-family:CaviarDreams, Caviar Dreams;font-weight:400;letter-spacing:0.4em;}</style><linearGradient id="Безымянный_градиент_142" y1="250" x2="750" y2="250" gradientUnits="userSpaceOnUse"><stop offset="0" stop-color="#ffa600"/><stop offset="0.15" stop-color="#ff9808"/><stop offset="0.41" stop-color="#ff8612"/><stop offset="0.68" stop-color="#ff7b18"/><stop offset="1" stop-color="#ff781a"/></linearGradient><clipPath id="clip-path"><rect class="cls-1" width="750" height="500"/></clipPath><radialGradient id="Безымянный_градиент_110" cx="439.48" cy="430.28" r="188.64" gradientUnits="userSpaceOnUse"><stop offset="0" stop-color="#7d240f"/><stop offset="1" stop-color="#fff" stop-opacity="0"/></radialGradient><radialGradient id="Безымянный_градиент_121" cx="553.06" cy="262.38" r="188.64" gradientTransform="translate(347.52 -314.22) rotate(45)" gradientUnits="userSpaceOnUse"><stop offset="0" stop-color="#7d240f"/><stop offset="0.17" stop-color="#8c3d2b" stop-opacity="0.88"/><stop offset="0.49" stop-color="#b38073" stop-opacity="0.58"/><stop offset="0.92" stop-color="#f3eae8" stop-opacity="0.1"/><stop offset="1" stop-color="#fff" stop-opacity="0"/></radialGradient><radialGradient id="Безымянный_градиент_87" cx="671.06" cy="284.24" r="188.64" gradientTransform="matrix(0, 1, -0.76, 0, 931.61, -451.57)" gradientUnits="userSpaceOnUse"><stop offset="0" stop-color="#451408"/><stop offset="1" stop-color="#fff" stop-opacity="0"/></radialGradient><radialGradient id="Безымянный_градиент_119" cx="607.86" cy="10.13" r="188.64" gradientTransform="matrix(0, 1, -0.8, 0, 626.62, -559.36)" gradientUnits="userSpaceOnUse"><stop offset="0" stop-color="#7d240f"/><stop offset="0.15" stop-color="#883723" stop-opacity="0.91"/><stop offset="0.41" stop-color="#a6695a" stop-opacity="0.69"/><stop offset="0.74" stop-color="#d6bab3" stop-opacity="0.32"/><stop offset="1" stop-color="#fff" stop-opacity="0"/></radialGradient><radialGradient id="Безымянный_градиент_87-2" cx="500.68" cy="174.87" r="188.63" gradientTransform="matrix(0, 1, -0.7, 0, 600.29, -395.44)" xlink:href="#Безымянный_градиент_87"/><radialGradient id="Безымянный_градиент_113" cx="290.57" cy="425.72" r="188.64" gradientTransform="matrix(1, 0, 0, 0.77, -25.94, 147.06)" gradientUnits="userSpaceOnUse"><stop offset="0" stop-color="#7d240f"/><stop offset="0.14" stop-color="#85321e" stop-opacity="0.94"/><stop offset="0.36" stop-color="#9b5747" stop-opacity="0.77"/><stop offset="0.62" stop-color="#c0948a" stop-opacity="0.49"/><stop offset="0.93" stop-color="#f2e8e6" stop-opacity="0.1"/><stop offset="1" stop-color="#fff" stop-opacity="0"/></radialGradient><radialGradient id="Безымянный_градиент_89" cx="107.95" cy="377.23" r="111.09" gradientTransform="matrix(0, 1, -0.67, 0, 360.96, 343.65)" gradientUnits="userSpaceOnUse"><stop offset="0" stop-color="#451408"/><stop offset="0.49" stop-color="#9a7f78" stop-opacity="0.54"/><stop offset="1" stop-color="#fff" stop-opacity="0"/></radialGradient><radialGradient id="Безымянный_градиент_115" cx="566.3" cy="416.62" r="111.09" gradientTransform="matrix(0, 1, -0.72, 0, 879.06, -111.91)" gradientUnits="userSpaceOnUse"><stop offset="0" stop-color="#7d240f"/><stop offset="0.17" stop-color="#8d3f2d" stop-opacity="0.88"/><stop offset="0.51" stop-color="#b7867b" stop-opacity="0.55"/><stop offset="0.97" stop-color="#fbf8f7" stop-opacity="0.03"/><stop offset="1" stop-color="#fff" stop-opacity="0"/></radialGradient><radialGradient id="Безымянный_градиент_98" cx="691.18" cy="-45.6" r="78.5" gradientTransform="matrix(1, 0, 0, 0.72, -32.52, 336.08)" gradientUnits="userSpaceOnUse"><stop offset="0" stop-color="#912b11"/><stop offset="1" stop-color="#fff" stop-opacity="0"/></radialGradient><radialGradient id="Безымянный_градиент_109" cx="481.58" cy="466.87" r="151.15" gradientTransform="matrix(0, 1, -0.72, 0, 1004.9, -67.17)" xlink:href="#Безымянный_градиент_110"/><linearGradient id="Безымянный_градиент_23" x1="615.23" y1="-3.03" x2="611.23" y2="32.97" gradientUnits="userSpaceOnUse"><stop offset="0" stop-color="#ffa600"/><stop offset="0.25" stop-color="#ff8c09"/><stop offset="0.75" stop-color="#ff5d18"/><stop offset="1" stop-color="#ff4b1e"/></linearGradient><linearGradient id="Безымянный_градиент_52" x1="578.97" y1="148.58" x2="712.43" y2="59.43" gradientTransform="translate(9.02 -71.75) rotate(3.04)" gradientUnits="userSpaceOnUse"><stop offset="0" stop-color="#c73a17"/><stop offset="0.01" stop-color="#c83c17"/><stop offset="0.48" stop-color="#e6750a"/><stop offset="0.82" stop-color="#f89903"/><stop offset="1" stop-color="#ffa600"/></linearGradient><linearGradient id="Безымянный_градиент_54" x1="525.41" y1="15.11" x2="621.41" y2="144.11" gradientTransform="translate(9.02 -71.75) rotate(3.04)" gradientUnits="userSpaceOnUse"><stop offset="0" stop-color="#c73a17"/><stop offset="0.17" stop-color="#cd4515"/><stop offset="0.46" stop-color="#db610f"/><stop offset="0.83" stop-color="#f38f05"/><stop offset="1" stop-color="#ffa600"/></linearGradient><linearGradient id="Безымянный_градиент_23-2" x1="392.59" y1="186.95" x2="385.63" y2="249.66" gradientTransform="translate(162.9 425.99) rotate(-80.86)" xlink:href="#Безымянный_градиент_23"/><linearGradient id="Безымянный_градиент_52-2" x1="328.55" y1="384.19" x2="468.34" y2="290.81" gradientTransform="matrix(0.21, -0.98, 0.98, 0.21, 93.44, 405.66)" xlink:href="#Безымянный_градиент_52"/><linearGradient id="Безымянный_градиент_54-2" x1="291.91" y1="259.52" x2="379.58" y2="377.33" gradientTransform="matrix(0.21, -0.98, 0.98, 0.21, 93.44, 405.66)" xlink:href="#Безымянный_градиент_54"/><linearGradient id="Безымянный_градиент_50" x1="540.63" y1="251.59" x2="606.58" y2="258.07" gradientUnits="userSpaceOnUse"><stop offset="0" stop-color="#c73a17"/><stop offset="0.08" stop-color="#ce4714"/><stop offset="0.36" stop-color="#e3700c"/><stop offset="0.62" stop-color="#f28d05"/><stop offset="0.84" stop-color="#fca001"/><stop offset="1" stop-color="#ffa600"/></linearGradient><linearGradient id="Безымянный_градиент_49" x1="540.63" y1="288.65" x2="524.13" y2="343.4" gradientUnits="userSpaceOnUse"><stop offset="0" stop-color="#c73a17"/><stop offset="0.22" stop-color="#d04c13"/><stop offset="0.65" stop-color="#e97b09"/><stop offset="1" stop-color="#ffa600"/></linearGradient><linearGradient id="Безымянный_градиент_24" x1="461.32" y1="229.22" x2="585.43" y2="241.43" gradientUnits="userSpaceOnUse"><stop offset="0" stop-color="#ff4b1e"/><stop offset="0.25" stop-color="#ff5d18"/><stop offset="0.75" stop-color="#ff8c09"/><stop offset="1" stop-color="#ffa600"/></linearGradient><linearGradient id="Безымянный_градиент_50-2" x1="351.74" y1="317.49" x2="410.07" y2="323.22" gradientTransform="translate(403.5 -57.89) rotate(42.39)" xlink:href="#Безымянный_градиент_50"/><linearGradient id="Безымянный_градиент_49-2" x1="323.32" y1="341.69" x2="308.73" y2="390.11" gradientTransform="translate(403.5 -57.89) rotate(42.39)" xlink:href="#Безымянный_градиент_49"/><linearGradient id="Безымянный_градиент_24-2" x1="226.13" y1="279.61" x2="392.37" y2="295.96" gradientTransform="translate(403.5 -57.89) rotate(42.39)" xlink:href="#Безымянный_градиент_24"/><linearGradient id="Безымянный_градиент_50-3" x1="582.48" y1="224.12" x2="643.26" y2="230.1" gradientTransform="matrix(0.59, -0.81, 0.81, 0.59, 124.23, 750.76)" xlink:href="#Безымянный_градиент_50"/><linearGradient id="Безымянный_градиент_49-3" x1="680.76" y1="430.05" x2="712.26" y2="449.55" xlink:href="#Безымянный_градиент_49"/><linearGradient id="Безымянный_градиент_24-3" x1="546.69" y1="219.36" x2="617.02" y2="226.27" gradientTransform="matrix(0.59, -0.81, 0.81, 0.59, 124.23, 750.76)" xlink:href="#Безымянный_градиент_24"/><linearGradient id="Безымянный_градиент_50-4" x1="199.57" y1="447.94" x2="262.52" y2="454.13" gradientTransform="translate(465.42 19.02) rotate(48.52)" xlink:href="#Безымянный_градиент_50"/><linearGradient id="Безымянный_градиент_49-4" x1="215.66" y1="466.69" x2="191.2" y2="547.82" gradientTransform="translate(465.42 19.02) rotate(48.52)" xlink:href="#Безымянный_градиент_49"/><linearGradient id="Безымянный_градиент_24-4" x1="153.5" y1="410.9" x2="228.59" y2="418.29" gradientTransform="translate(465.42 19.02) rotate(48.52)" xlink:href="#Безымянный_градиент_24"/><linearGradient id="Безымянный_градиент_50-5" x1="55.99" y1="536.81" x2="87.78" y2="539.94" gradientTransform="translate(642.06 343.38) rotate(84.95)" xlink:href="#Безымянный_градиент_50"/><linearGradient id="Безымянный_градиент_49-5" x1="64.11" y1="546.28" x2="51.77" y2="587.26" gradientTransform="translate(642.06 343.38) rotate(84.95)" xlink:href="#Безымянный_градиент_49"/><linearGradient id="Безымянный_градиент_68" x1="32.72" y1="518.11" x2="70.65" y2="521.84" gradientTransform="translate(642.06 343.38) rotate(84.95)" xlink:href="#Безымянный_градиент_49"/><linearGradient id="Безымянный_градиент_50-6" x1="746.94" y1="263.49" x2="839.9" y2="272.63" gradientTransform="translate(210.71 843.18) rotate(-72.63)" xlink:href="#Безымянный_градиент_50"/><linearGradient id="Безымянный_градиент_49-6" x1="763.64" y1="163.53" x2="742.97" y2="305.36" xlink:href="#Безымянный_градиент_49"/><linearGradient id="Безымянный_градиент_24-5" x1="670.29" y1="257.19" x2="760.81" y2="266.1" gradientTransform="translate(210.71 843.18) rotate(-72.63)" xlink:href="#Безымянный_градиент_24"/><linearGradient id="Безымянный_градиент_30" x1="543.92" y1="451.38" x2="582.35" y2="455.16" gradientTransform="matrix(1.18, -0.78, 0.91, 1.37, -540.54, 264.18)" gradientUnits="userSpaceOnUse"><stop offset="0" stop-color="#ffa600"/><stop offset="0.18" stop-color="#ffa002"/><stop offset="0.42" stop-color="#ff8d08"/><stop offset="0.71" stop-color="#ff7012"/><stop offset="1" stop-color="#ff4b1e"/></linearGradient><linearGradient id="Безымянный_градиент_40" x1="574.7" y1="469.91" x2="620.89" y2="474.46" gradientTransform="matrix(1.18, -0.78, 0.91, 1.37, -540.54, 264.18)" xlink:href="#Безымянный_градиент_50"/><linearGradient id="Безымянный_градиент_47" x1="586.84" y1="467.71" x2="580.1" y2="484.4" gradientTransform="matrix(1.18, -0.78, 0.91, 1.37, -540.54, 264.18)" gradientUnits="userSpaceOnUse"><stop offset="0" stop-color="#c73a17"/><stop offset="0.28" stop-color="#db610f"/><stop offset="0.59" stop-color="#ef8707"/><stop offset="0.84" stop-color="#fb9e02"/><stop offset="1" stop-color="#ffa600"/></linearGradient><linearGradient id="Безымянный_градиент_30-2" x1="622.42" y1="315.86" x2="660.48" y2="319.6" gradientTransform="translate(1233.69 -167.47) rotate(114.81)" xlink:href="#Безымянный_градиент_30"/><linearGradient id="Безымянный_градиент_40-2" x1="656.5" y1="325.47" x2="709.95" y2="330.73" gradientTransform="translate(1233.69 -167.47) rotate(114.81)" xlink:href="#Безымянный_градиент_50"/><linearGradient id="Безымянный_градиент_47-2" x1="674.21" y1="325.47" x2="662.42" y2="354.7" gradientTransform="translate(1233.69 -167.47) rotate(114.81)" xlink:href="#Безымянный_градиент_47"/><radialGradient id="Безымянный_градиент_85" cx="476.97" cy="-155.33" r="98.55" gradientTransform="matrix(0, 1, -0.62, 0, 380.37, -214.59)" gradientUnits="userSpaceOnUse"><stop offset="0" stop-color="#451408"/><stop offset="0.03" stop-color="#4d1e12" stop-opacity="0.96"/><stop offset="0.45" stop-color="#ae9893" stop-opacity="0.44"/><stop offset="0.78" stop-color="#e9e3e2" stop-opacity="0.12"/><stop offset="1" stop-color="#fff" stop-opacity="0"/></radialGradient><linearGradient id="Безымянный_градиент_42" x1="443.51" y1="232.98" x2="529.35" y2="270.76" xlink:href="#Безымянный_градиент_50"/><linearGradient id="Безымянный_градиент_43" x1="473.19" y1="246.28" x2="490.42" y2="280.74" gradientUnits="userSpaceOnUse"><stop offset="0" stop-color="#c73a17"/><stop offset="0.35" stop-color="#dd650e"/><stop offset="0.78" stop-color="#f69404"/><stop offset="1" stop-color="#ffa600"/></linearGradient><linearGradient id="Безымянный_градиент_27" x1="452.13" y1="228.59" x2="446.69" y2="297.05" gradientUnits="userSpaceOnUse"><stop offset="0" stop-color="#ff4b1e"/><stop offset="0.29" stop-color="#ff7012"/><stop offset="0.58" stop-color="#ff8d08"/><stop offset="0.82" stop-color="#ffa002"/><stop offset="1" stop-color="#ffa600"/></linearGradient><radialGradient id="Безымянный_градиент_117" cx="853.52" cy="-576.97" r="98.54" gradientTransform="matrix(1, 0, 0, 0.62, -160.85, 488.52)" gradientUnits="userSpaceOnUse"><stop offset="0" stop-color="#7d240f"/><stop offset="0.03" stop-color="#812b17" stop-opacity="0.97"/><stop offset="0.49" stop-color="#c59d93" stop-opacity="0.45"/><stop offset="0.83" stop-color="#efe4e1" stop-opacity="0.12"/><stop offset="1" stop-color="#fff" stop-opacity="0"/></radialGradient><linearGradient id="Безымянный_градиент_64" x1="697.5" y1="136.33" x2="733.83" y2="124.33" xlink:href="#Безымянный_градиент_50"/><linearGradient id="Безымянный_градиент_58" x1="680.39" y1="90.53" x2="683.39" y2="188.78" gradientUnits="userSpaceOnUse"><stop offset="0" stop-color="#ffa600"/><stop offset="0.25" stop-color="#ff9406"/><stop offset="0.75" stop-color="#ff6515"/><stop offset="1" stop-color="#ff4b1e"/></linearGradient><linearGradient id="Безымянный_градиент_61" x1="700.05" y1="75.93" x2="697.8" y2="98.68" gradientUnits="userSpaceOnUse"><stop offset="0" stop-color="#ffa600"/><stop offset="0.2" stop-color="#f79703"/><stop offset="0.58" stop-color="#e26e0c"/><stop offset="1" stop-color="#c73a17"/></linearGradient><radialGradient id="Безымянный_градиент_85-2" cx="516.8" cy="-475.54" r="74.72" gradientTransform="matrix(0.94, 0, 0, 0.59, 24.36, 344.59)" xlink:href="#Безымянный_градиент_85"/><linearGradient id="Безымянный_градиент_30-3" x1="180.87" y1="-12.05" x2="212.79" y2="-8.91" gradientTransform="matrix(0.04, 1, -1, 0.04, 509.22, -143.52)" xlink:href="#Безымянный_градиент_30"/><linearGradient id="Безымянный_градиент_40-3" x1="207.13" y1="3.78" x2="246.57" y2="7.66" gradientTransform="matrix(0.04, 1, -1, 0.04, 509.22, -143.52)" xlink:href="#Безымянный_градиент_50"/><linearGradient id="Безымянный_градиент_47-3" x1="216.78" y1="9.09" x2="211.03" y2="23.34" gradientTransform="matrix(0.04, 1, -1, 0.04, 509.22, -143.52)" xlink:href="#Безымянный_градиент_47"/><radialGradient id="Безымянный_градиент_111" cx="411.89" cy="-17.6" r="81.81" gradientTransform="matrix(0, 0.89, -0.56, 0, 401.56, -18.42)" gradientUnits="userSpaceOnUse"><stop offset="0" stop-color="#7d240f"/><stop offset="0.05" stop-color="#863320" stop-opacity="0.93"/><stop offset="0.36" stop-color="#ba8b80" stop-opacity="0.53"/><stop offset="0.64" stop-color="#e0cac5" stop-opacity="0.24"/><stop offset="0.86" stop-color="#f7f1ef" stop-opacity="0.06"/><stop offset="1" stop-color="#fff" stop-opacity="0"/></radialGradient><linearGradient id="Безымянный_градиент_64-2" x1="404.49" y1="359.18" x2="450.85" y2="316.72" xlink:href="#Безымянный_градиент_50"/><linearGradient id="Безымянный_градиент_65" x1="374.84" y1="497.02" x2="377.29" y2="577.05" gradientTransform="matrix(0.82, -0.58, 0.58, 0.82, -214.2, 134.09)" gradientUnits="userSpaceOnUse"><stop offset="0" stop-color="#ffa600"/><stop offset="1" stop-color="#ff4b1e"/></linearGradient><linearGradient id="Безымянный_градиент_67" x1="403.38" y1="338.56" x2="386.43" y2="292.05" gradientUnits="userSpaceOnUse"><stop offset="0" stop-color="#c73a17"/><stop offset="1" stop-color="#ffa600"/></linearGradient><radialGradient id="Безымянный_градиент_91" cx="466.64" cy="-294.84" r="76.36" gradientTransform="matrix(0, 0.87, -0.54, 0, 354.9, -216.91)" gradientUnits="userSpaceOnUse"><stop offset="0" stop-color="#c73a17"/><stop offset="0.07" stop-color="#cc4c2d" stop-opacity="0.91"/><stop offset="0.32" stop-color="#de8b77" stop-opacity="0.59"/><stop offset="0.54" stop-color="#ecbdb1" stop-opacity="0.33"/><stop offset="0.74" stop-color="#f6e1dc" stop-opacity="0.15"/><stop offset="0.9" stop-color="#fdf7f6" stop-opacity="0.04"/><stop offset="1" stop-color="#fff" stop-opacity="0"/></radialGradient><linearGradient id="Безымянный_градиент_30-4" x1="470.4" y1="168.67" x2="513.02" y2="172.86" gradientTransform="matrix(1, 0, 0, 1, 0, 0)" xlink:href="#Безымянный_градиент_30"/><linearGradient id="Безымянный_градиент_40-4" x1="504.53" y1="189.22" x2="555.75" y2="194.26" xlink:href="#Безымянный_градиент_50"/><linearGradient id="Безымянный_градиент_47-4" x1="517.99" y1="186.78" x2="510.52" y2="205.29" gradientTransform="matrix(1, 0, 0, 1, 0, 0)" xlink:href="#Безымянный_градиент_47"/></defs><g class="cls-2"><g id="BACKGROUND"><rect class="cls-3" width="750" height="500"/></g><g id="OBJECTS"><g class="cls-4"><circle class="cls-5" cx="439.48" cy="430.28" r="188.64"/><circle class="cls-6" cx="553.06" cy="262.38" r="188.64" transform="translate(-23.54 467.92) rotate(-45)"/><ellipse class="cls-7" cx="716" cy="219.5" rx="143.11" ry="188.64" transform="translate(225.25 785.19) rotate(-66.1)"/><ellipse class="cls-8" cx="618.5" cy="48.47" rx="151.25" ry="188.64" transform="translate(227.57 530.2) rotate(-55.42)"/><ellipse class="cls-9" cx="477.13" cy="105.25" rx="132.87" ry="188.64" transform="translate(187.61 498.83) rotate(-66.1)"/><ellipse class="cls-10" cx="264.63" cy="474.25" rx="188.64" ry="144.98" transform="translate(-178.94 160.91) rotate(-25.6)"/><ellipse class="cls-11" cx="107.41" cy="451.59" rx="74.67" ry="111.09" transform="translate(-356.4 432.86) rotate(-74.31)"/><ellipse class="cls-12" cx="577.8" cy="454.35" rx="80.33" ry="111.09" transform="translate(-15.88 887.74) rotate(-74.31)"/><ellipse class="cls-13" cx="658.64" cy="303.08" rx="78.5" ry="56.76" transform="translate(-58.87 198.98) rotate(-16.45)"/><ellipse class="cls-14" cx="667.27" cy="414.42" rx="109.3" ry="151.16" transform="translate(-105.88 275.74) rotate(-21.67)"/><polygon class="cls-15" points="520.93 -12.46 622 34.52 709.01 11 520.93 -12.46"/><polygon class="cls-16" points="599.83 142.56 622 34.52 709.01 11 599.83 142.56"/><polygon class="cls-17" points="520.93 -12.46 599.83 142.56 622 34.52 520.93 -12.46"/><polygon class="cls-18" points="394.8 129.14 466.98 100.38 458.15 16.22 394.8 129.14"/><polygon class="cls-19" points="577.8 150.3 466.98 100.38 458.15 16.22 577.8 150.3"/><polygon class="cls-20" points="394.8 129.14 577.8 150.3 466.98 100.38 394.8 129.14"/><polygon class="cls-21" points="594.18 157.5 538.66 288.5 597.16 356.5 594.18 157.5"/><polygon class="cls-22" points="456.16 313.5 538.66 288.5 597.16 356.5 456.16 313.5"/><polygon class="cls-23" points="594.18 157.5 456.16 313.5 538.66 288.5 594.18 157.5"/><polygon class="cls-24" points="540.29 384.2 425.92 436.65 423.58 515.94 540.29 384.2"/><polygon class="cls-25" points="338.67 345.67 425.92 436.65 423.58 515.94 338.67 345.67"/><polygon class="cls-26" points="540.29 384.2 338.67 345.67 425.92 436.65 540.29 384.2"/><polygon class="cls-27" points="618.5 338.54 676.11 434.37 741.5 412.5 618.5 338.54"/><polygon class="cls-28" points="676.11 482.32 676.11 434.37 741.5 412.5 676.11 482.32"/><polygon class="cls-29" points="618.5 338.54 676.11 482.32 676.11 434.37 618.5 338.54"/><polygon class="cls-30" points="358.08 428.18 251.16 475 218.5 575 358.08 428.18"/><polygon class="cls-31" points="205.87 447.07 251.16 475 218.5 575 205.87 447.07"/><polygon class="cls-32" points="358.08 428.18 205.87 447.07 251.16 475 358.08 428.18"/><polygon class="cls-33" points="162.42 460.16 104.92 447.12 61.66 477.96 162.42 460.16"/><polygon class="cls-34" points="94.9 422.19 104.92 447.12 61.66 477.96 94.9 422.19"/><polygon class="cls-35" points="162.42 460.16 94.9 422.19 104.92 447.12 162.42 460.16"/><polygon class="cls-36" points="608.7 160.85 716 219.5 804 157.5 608.7 160.85"/><polygon class="cls-37" points="740.5 313.5 716 219.5 804 157.5 740.5 313.5"/><polygon class="cls-38" points="608.7 160.85 740.5 313.5 716 219.5 608.7 160.85"/><polygon class="cls-39" points="521.11 474.25 559.88 448.64 551.21 417.46 521.11 474.25"/><polygon class="cls-40" points="644.11 468.57 559.88 448.64 551.21 417.46 644.11 468.57"/><polygon class="cls-41" points="521.11 474.25 644.11 468.57 559.88 448.64 521.11 474.25"/><polygon class="cls-42" points="664.39 253.5 667.27 298.61 688.3 308.42 664.39 253.5"/><polygon class="cls-43" points="609.16 322.91 667.27 298.61 688.3 308.42 609.16 322.91"/><polygon class="cls-44" points="664.39 253.5 609.16 322.91 667.27 298.61 664.39 253.5"/><ellipse class="cls-45" cx="477.13" cy="262.38" rx="61.38" ry="98.55" transform="translate(116.95 670.75) rotate(-77.39)"/><polygon class="cls-46" points="443.5 227.47 458.91 253.06 540.52 262.38 443.5 227.47"/><polygon class="cls-47" points="438.51 295.47 458.91 253.06 540.52 262.38 438.51 295.47"/><polygon class="cls-48" points="443.5 227.47 438.51 295.47 458.91 253.06 443.5 227.47"/><ellipse class="cls-49" cx="692.71" cy="129.14" rx="98.55" ry="61.38" transform="translate(515.51 811.13) rotate(-86)"/><polygon class="cls-50" points="731.33 76.78 692.71 97.93 689.14 187.47 731.33 76.78"/><polygon class="cls-51" points="668.05 82.33 692.71 97.93 689.14 187.47 668.05 82.33"/><polygon class="cls-52" points="731.33 76.78 668.05 82.33 692.71 97.93 731.33 76.78"/><ellipse class="cls-53" cx="512.13" cy="65.05" rx="70.53" ry="43.93" transform="translate(83.42 352.66) rotate(-41.09)"/><polygon class="cls-54" points="511.1 36.55 512.13 64.54 542.83 69.94 511.1 36.55"/><polygon class="cls-55" points="480.72 101.49 512.13 64.54 542.83 69.94 480.72 101.49"/><polygon class="cls-56" points="511.1 36.55 480.72 101.49 512.13 64.54 511.1 36.55"/><ellipse class="cls-57" cx="411.33" cy="349.01" rx="45.45" ry="72.98" transform="translate(-90.09 150.07) rotate(-18.67)"/><polygon class="cls-58" points="417.5 298.61 394.8 335.28 427.86 386.42 417.5 298.61"/><polygon class="cls-59" points="369 322.91 394.8 335.28 427.86 386.42 369 322.91"/><polygon class="cls-60" points="417.5 298.61 369 322.91 394.8 335.28 417.5 298.61"/><ellipse class="cls-61" cx="514.41" cy="188.5" rx="41.32" ry="66.34" transform="translate(41.08 464.38) rotate(-50.36)"/><polygon class="cls-62" points="470.24 181.22 506.61 181.22 514.41 160.43 470.24 181.22"/><polygon class="cls-63" points="553.06 223.76 506.61 181.22 514.41 160.43 553.06 223.76"/><polygon class="cls-64" points="470.24 181.22 553.06 223.76 506.61 181.22 470.24 181.22"/></g><text class="cls-65" transform="translate(74.89 232.51)">GRAPIC<tspan class="cls-66"><tspan x="4.18" y="53">DESIGN</tspan></tspan></text></g></g></svg>