<svg xmlns="http://www.w3.org/2000/svg" width="2500" height="472" fill="none" viewBox="-0.01 0 157.34 30.004"><path fill="#f1f5f9" d="M54.76 23V9h3.4v11h6.24v3zm11.508 0v-2.86h2.36v-8.28h-2.36V9h8.14v2.86h-2.38v8.28h2.38V23zm14.893 0-5.6-14h3.54l2.7 7.14q.24.62.4 1.08.18.46.3.86.141.4.24.82.12.4.26.92h-.62a21 21 0 0 1 .68-2.3q.2-.58.5-1.38l2.6-7.14h3.48l-5.64 14zm9.918 0V9h9.761v2.9h-6.46v8.2h6.66V23h-9.96zm1.6-5.74V14.5h7.26v2.76zM106.09 23l-4.2-14h3.46l2.1 7.36q.14.5.24 1.02.12.5.18.96.08.46.12.86.04.38.08.64h-.44q.12-.74.2-1.32.1-.58.22-1.08.12-.52.3-1.08l2.08-5.54h2.72l2.04 5.54q.24.66.4 1.24c.16.58.187.76.24 1.12q.1.52.16 1.04l-.4.06q.04-.36.06-.66.02-.32.04-.6.04-.3.08-.62c.04-.32.067-.447.12-.7q.08-.4.22-.9L118.19 9h3.38l-4.2 14h-2.6l-3.32-8.06.38.04-3.06 8.02zm16.663 0v-2.86h2.36v-8.28h-2.36V9h8.14v2.86h-2.38v8.28h2.38V23zm10.974 0V9h6.3q1.34 0 2.42.58 1.1.58 1.72 1.6.62 1 .62 2.28 0 1.32-.62 2.38a4.46 4.46 0 0 1-1.7 1.64q-1.08.6-2.44.6h-3.06V23zm7.76 0-3.56-6.32 3.48-.5 3.96 6.82zm-4.52-7.52h2.76q.52 0 .9-.22.4-.24.6-.66.22-.42.22-.96c0-.54-.08-.673-.24-.94a1.56 1.56 0 0 0-.7-.64q-.44-.22-1.08-.22h-2.46zM147.37 23V9h9.76v2.9h-6.46v8.2h6.66V23zm1.6-5.74V14.5h7.26v2.76z"/><g fill-rule="evenodd" clip-rule="evenodd"><path fill="#fb70a9" d="M34.8 27.706C34.12 28.734 33.605 30 32.223 30c-2.326 0-2.452-3.587-4.78-3.587-2.327 0-2.201 3.587-4.527 3.587s-2.452-3.587-4.78-3.587c-2.327 0-2.201 3.587-4.528 3.587s-2.452-3.587-4.78-3.587S6.628 30 4.3 30c-.731 0-1.245-.354-1.678-.84A19.87 19.87 0 0 1 0 19.24C0 8.613 8.208 0 18.333 0 28.46 0 36.667 8.614 36.667 19.24c0 3.037-.671 5.91-1.866 8.466z"/><path fill="#fb70a9" d="M34.8 27.706C34.12 28.734 33.605 30 32.223 30c-2.326 0-2.452-3.587-4.78-3.587-2.327 0-2.201 3.587-4.527 3.587s-2.452-3.587-4.78-3.587c-2.327 0-2.201 3.587-4.528 3.587s-2.452-3.587-4.78-3.587S6.628 30 4.3 30c-.731 0-1.245-.354-1.678-.84A19.87 19.87 0 0 1 0 19.24C0 8.613 8.208 0 18.333 0 28.46 0 36.667 8.614 36.667 19.24c0 3.037-.671 5.91-1.866 8.466z"/><path fill="#e24ca6" d="M30.834 29.617q7.207-10.72.372-23.784a19.2 19.2 0 0 1 5.461 13.447c0 3.026-.695 5.89-1.934 8.434C34.028 28.738 33.493 30 32.06 30a2.1 2.1 0 0 1-1.226-.383"/><path fill="#fff" d="M17.35 24.038c6.376 0 9.06-3.698 9.06-8.95C26.41 9.834 22.355 5 17.35 5c-5.003 0-9.059 4.835-9.059 10.087 0 5.253 2.684 8.951 9.06 8.951z"/></g><path fill="#030776" d="M14.915 15.385c1.876 0 3.397-1.68 3.397-3.75s-1.52-3.75-3.397-3.75-3.397 1.679-3.397 3.75 1.52 3.75 3.397 3.75"/><path fill="#fff" d="M14.35 12.5c.937 0 1.698-.775 1.698-1.73 0-.957-.76-1.731-1.699-1.731-.938 0-1.699.774-1.699 1.73s.76 1.731 1.7 1.731"/></svg>